<?xml version="1.0" encoding="UTF-8"?><svg id="Capa_1" xmlns="http://www.w3.org/2000/svg" xmlns:xlink="http://www.w3.org/1999/xlink" viewBox="0 0 152 48.06"><defs><mask id="mask" x="0" y="0" width="48" height="48.06" maskUnits="userSpaceOnUse"><g id="mask0_947_6362"><rect width="48" height="48" rx="10" ry="10" style="fill:#d9d9d9; stroke-width:0px;"/></g></mask></defs><g style="mask:url(#mask);"><path d="M11.02,26.67v6.69h-5.75v-3.35c0-1.84,1.66-3.35,3.7-3.35h2.06ZM12.5,15.22L0,27.41v20.65h46.64L12.5,15.22ZM15.2,26.67c2.04,0,3.7,1.51,3.7,3.35v3.35h-5.76v-6.69h2.07ZM11.02,35.12v7.32h-5.75v-7.32h5.75ZM18.9,35.12v7.32h-5.76v-7.32h5.76Z" style="fill:#1f1f25; fill-rule:evenodd; stroke-width:0px;"/><path d="M32.23,25.34h2.5v2.49h-2.5v-2.49ZM32.23,22.16h2.5v2.49h-2.5v-2.49ZM35.63,25.34h2.5v2.49h-2.5v-2.49ZM35.63,24.65v-2.49h2.5v2.49h-2.5ZM25.08,22.72l22.92,22.04v-14l-12.93-13.37-5.69,5.95-2.29-2.2,7.79-7.9,5.49,6.1v-3.47h4.07v6.94l3.55,3.74V0H0v22.56l12.37-12.06,7.4,7.11v-5.58h5.31v10.7Z" style="fill:#f47629; fill-rule:evenodd; stroke-width:0px;"/></g><text transform="translate(48.63 17.79) scale(1.18 1)" style="fill:#000; font-family:ExoRoman-Bold, Exo; font-size:20.55px; font-variation-settings:&apos;wght&apos; 700; font-weight:700;"><tspan x="0" y="0" style="letter-spacing:-.01em;">C</tspan><tspan x="11.84" y="0" style="letter-spacing:0em;">onexión</tspan><tspan x="0" y="24.66">Segura</tspan></text></svg>